<?xml version="1.0" standalone="no"?>
<!DOCTYPE svg PUBLIC "-//W3C//DTD SVG 20010904//EN"
 "http://www.w3.org/TR/2001/REC-SVG-20010904/DTD/svg10.dtd">
<svg version="1.0" xmlns="http://www.w3.org/2000/svg"
 width="1146.000000pt" height="738.000000pt" viewBox="0 0 1146.000000 738.000000"
 preserveAspectRatio="xMidYMid meet">

<g transform="translate(0.000000,738.000000) scale(0.100000,-0.100000)"
fill="#000000" stroke="none">
<path d="M3400 4697 l0 -1833 237 -210 c1237 -1092 2060 -1804 2084 -1804 19
0 499 418 1434 1250 275 245 587 522 692 615 l192 170 0 1823 1 1822 -2320 0
-2320 0 0 -1833z m1868 1716 c2 -13 10 -23 18 -23 10 0 14 -13 14 -45 0 -33
-4 -45 -15 -45 -8 0 -15 -7 -15 -15 0 -8 5 -15 10 -15 6 0 10 -22 10 -50 0
-27 -4 -50 -10 -50 -6 0 -10 -61 -10 -163 0 -212 3 -207 -131 -207 l-99 0 0
40 0 40 60 0 60 0 0 72 0 73 -33 -50 c-29 -46 -36 -50 -75 -53 l-42 -3 0 38
c0 26 6 42 18 50 33 20 142 218 142 258 l0 35 -75 0 -75 0 0 45 0 45 75 0 c74
0 75 0 75 26 0 24 2 25 48 22 40 -3 47 -6 50 -25z m272 2 c0 -24 2 -25 70 -25
l70 0 0 -40 0 -40 -70 0 -70 0 0 -40 0 -39 68 -3 67 -3 3 -34 c3 -29 -8 -51
-63 -132 l-67 -98 32 -41 c26 -33 38 -40 66 -40 33 0 34 -1 34 -40 l0 -40 -64
0 c-62 0 -65 1 -95 38 l-31 37 -33 -38 c-31 -36 -34 -37 -99 -37 l-68 0 0 40
c0 40 0 40 39 40 33 0 44 6 70 37 17 21 31 40 31 44 0 3 -25 37 -55 76 -30 39
-55 74 -55 77 0 3 25 6 54 6 51 0 57 -3 82 -35 14 -19 30 -35 35 -35 4 0 19
19 33 43 l26 42 -118 5 -117 5 0 40 0 40 58 3 57 3 0 39 0 40 -55 0 -55 0 0
40 0 40 55 0 c52 0 55 1 55 25 0 24 3 25 55 25 52 0 55 -1 55 -25z m-1100 -10
c0 -22 4 -25 35 -25 35 0 35 0 35 -45 0 -45 0 -45 -35 -45 l-35 0 2 -217 3
-218 28 -3 c24 -3 27 -8 27 -38 l0 -34 -115 0 -115 0 0 34 c0 32 3 35 33 38
l32 3 3 218 2 217 -35 0 -36 0 3 43 c3 39 5 42 36 45 26 3 32 7 32 28 0 22 4
24 50 24 47 0 50 -2 50 -25z m210 -288 c0 -230 -3 -316 -12 -325 -7 -7 -36
-12 -65 -12 l-53 0 0 34 c0 21 6 36 15 40 13 5 15 46 15 291 l0 285 50 0 50 0
0 -313z m140 -12 l0 -325 -50 0 -50 0 0 325 0 325 50 0 50 0 0 -325z m140 0
l0 -325 -55 0 -55 0 0 318 c0 175 3 322 7 325 3 4 28 7 55 7 l48 0 0 -325z
m974 303 c-3 -13 -17 -51 -29 -85 l-23 -63 34 0 33 0 -25 -55 c-23 -52 -24
-66 -24 -240 l0 -185 -45 0 -45 0 0 160 c0 153 -1 160 -20 160 -17 0 -20 7
-20 45 0 38 3 45 20 45 11 0 26 12 35 30 20 39 20 40 -20 40 -35 0 -35 0 -35
45 0 37 3 45 19 45 13 0 24 13 35 40 16 39 17 40 67 40 48 0 50 -1 43 -22z
m216 -13 c0 -24 5 -35 15 -35 9 0 15 9 15 25 0 23 4 25 40 25 l40 0 0 -48 c0
-65 -20 -92 -70 -92 l-40 0 -2 -247 -3 -248 -45 0 -45 0 -3 247 -2 247 -53 3
-52 3 -3 43 -3 42 55 0 56 0 0 35 0 35 50 0 50 0 0 -35z m760 -20 l0 -55 130
0 130 0 0 -45 0 -45 -124 0 -124 0 95 -176 c84 -154 99 -176 124 -181 27 -5
29 -9 29 -49 l0 -44 -45 0 c-84 0 -80 -5 -247 297 l-34 62 -89 -166 c-99 -183
-114 -197 -198 -191 -42 3 -42 3 -45 46 -3 40 -2 42 26 42 16 0 36 8 44 18 15
17 178 325 178 336 0 3 -56 6 -125 6 l-125 0 0 45 0 45 135 0 135 0 0 55 0 55
65 0 65 0 0 -55z m560 11 c0 -46 -9 -56 -56 -56 -43 0 -25 -18 21 -22 39 -3
50 1 72 24 l26 27 -28 33 -28 33 43 3 c23 2 47 -1 53 -7 7 -7 15 -7 22 -1 7 5
67 7 148 3 l137 -6 0 -144 c0 -89 4 -143 10 -143 6 0 10 -18 10 -39 l0 -39
-270 6 c-200 4 -270 2 -270 -7 0 -8 69 -11 255 -11 140 0 255 -2 255 -4 0 -2
-7 -22 -15 -45 l-14 -41 34 0 c33 0 35 -2 35 -35 0 -35 0 -35 -45 -35 -44 0
-45 -1 -45 -31 0 -17 -5 -39 -10 -50 -10 -18 -24 -19 -276 -19 l-265 0 3 33 3
32 213 3 c179 2 212 5 212 17 0 13 -34 15 -231 15 l-230 0 3 33 3 32 238 3
c146 1 237 6 237 12 0 6 -83 10 -220 10 l-220 0 0 35 c0 24 -5 35 -15 35 -11
0 -15 12 -15 45 0 25 4 45 10 45 5 0 11 57 12 138 l3 137 43 3 c23 2 42 7 42
13 0 5 25 9 55 9 l55 0 0 -44z m-3786 18 c3 -9 6 -28 6 -44 0 -20 6 -31 20
-35 16 -5 20 -15 20 -51 l0 -44 -53 0 c-29 0 -61 6 -70 13 -10 7 -21 37 -27
72 -6 33 -13 70 -15 83 -5 21 -2 22 54 22 44 0 60 -4 65 -16z m534 -51 l-3
-58 -48 -3 c-42 -3 -49 0 -54 17 -5 20 -13 21 -134 21 -122 0 -129 -1 -129
-20 0 -17 -7 -20 -50 -20 l-50 0 0 60 0 60 235 0 236 0 -3 -57z m2212 17 l0
-40 -80 0 -80 0 0 40 0 40 80 0 80 0 0 -40z m-2456 -97 c-15 -85 -18 -88 -127
-91 l-97 -3 0 46 0 45 59 0 c50 0 59 3 64 20 4 17 14 20 57 20 l51 0 -7 -37z
m136 12 c8 -22 15 -25 60 -25 l50 0 0 -40 0 -40 -82 0 c-46 0 -89 4 -95 8 -11
7 -43 92 -43 115 0 4 23 7 50 7 45 0 52 -3 60 -25z m2318 -38 c2 -26 -1 -39
-12 -43 -14 -5 -16 -33 -16 -198 0 -225 -1 -229 -76 -230 l-49 -1 -3 36 c-2
30 1 37 17 42 20 5 21 12 21 175 0 162 -1 171 -20 177 -16 5 -20 15 -20 46 l0
40 78 -3 77 -3 3 -38z m-392 -214 c-8 -242 -12 -253 -73 -253 -31 0 -33 2 -33
34 0 19 5 38 10 41 6 3 10 43 10 88 0 45 3 133 7 195 l6 112 40 0 40 0 -7
-217z m208 40 c4 -98 9 -204 13 -235 l6 -58 -35 0 c-20 0 -40 6 -46 13 -5 6
-13 111 -17 235 l-7 222 39 0 40 0 7 -177z m-2560 92 c6 -36 11 -45 27 -45 16
0 19 -7 19 -45 l0 -46 -62 3 c-74 4 -81 13 -92 116 l-7 62 54 0 55 0 6 -45z
m352 -10 c5 -12 25 -15 95 -15 l89 0 0 -40 0 -40 -90 0 -90 0 0 -124 c0 -152
-3 -156 -96 -156 l-64 0 0 40 c0 36 3 40 25 40 l25 0 0 100 0 100 -90 0 -90 0
0 40 0 40 89 0 c70 0 90 3 95 15 4 10 20 15 51 15 31 0 47 -5 51 -15z m-153
-122 c8 -15 -14 -227 -24 -240 -7 -8 -33 -13 -65 -13 l-54 0 0 40 c0 27 4 40
14 40 15 0 26 50 26 121 0 25 3 49 7 52 9 9 91 9 96 0z m291 -35 c3 -18 8 -56
12 -85 4 -30 12 -54 20 -57 8 -3 14 -20 14 -41 l0 -35 -54 0 c-31 0 -58 5 -64
13 -5 6 -15 48 -21 92 -6 44 -14 95 -17 113 l-5 32 54 0 c54 0 55 -1 61 -32z
m-428 -5 c-3 -10 -12 -52 -21 -93 -26 -121 -25 -120 -95 -120 l-60 0 0 39 c0
29 5 40 18 43 14 4 21 23 31 77 l13 71 60 0 c52 0 59 -2 54 -17z m-66 -403
c11 -11 20 -27 20 -35 0 -20 -40 -19 -55 2 -8 11 -14 13 -19 5 -4 -6 3 -19 15
-29 48 -39 59 -54 59 -80 0 -37 -27 -63 -66 -63 -39 0 -64 22 -64 56 0 19 5
24 25 24 18 0 25 -5 25 -20 0 -11 7 -20 15 -20 26 0 17 22 -25 60 -23 21 -40
46 -40 58 0 30 34 62 65 62 14 0 34 -9 45 -20z m1617 5 c11 -8 23 -26 25 -40
5 -22 2 -25 -23 -25 -19 0 -29 5 -29 15 0 8 -7 15 -15 15 -12 0 -15 -14 -15
-65 0 -50 3 -65 14 -65 8 0 16 10 18 22 3 24 34 36 49 21 11 -11 -6 -64 -24
-75 -20 -12 -72 -9 -92 6 -15 11 -20 30 -23 84 -4 65 -2 73 21 96 29 29 62 33
94 11z m513 -5 c16 -16 20 -33 20 -92 0 -85 -15 -108 -68 -108 -58 0 -72 21
-72 107 0 84 18 113 70 113 17 0 39 -9 50 -20z m285 -5 c21 -20 25 -34 25 -87
0 -79 -17 -108 -65 -108 -18 0 -40 3 -49 6 -42 16 -44 170 -3 199 31 22 65 18
92 -10z m158 13 c9 -7 19 -25 23 -40 5 -25 3 -28 -19 -28 -14 0 -27 7 -31 15
-13 35 -26 11 -26 -50 0 -38 4 -65 10 -65 16 0 26 33 12 38 -7 2 -12 12 -12
23 0 15 7 19 35 19 l35 0 0 -59 0 -59 -49 0 c-72 -1 -84 12 -89 96 -4 65 -2
73 21 96 28 28 64 33 90 14z m1249 0 c9 -7 19 -23 23 -35 5 -20 3 -23 -18 -23
-14 0 -28 7 -31 17 -5 13 -9 14 -19 4 -9 -9 -3 -20 31 -47 45 -39 52 -65 26
-102 -11 -16 -25 -22 -53 -22 -44 0 -61 14 -61 52 0 22 5 28 21 28 12 0 23 -8
26 -20 6 -21 18 -26 28 -10 3 5 -4 17 -16 27 -48 39 -59 54 -59 82 0 49 63 79
102 49z m-3722 -33 c0 -24 5 -35 15 -35 10 0 15 11 15 35 0 31 3 35 25 35 l25
0 0 -105 0 -105 -25 0 c-23 0 -25 4 -25 45 0 33 -4 45 -15 45 -11 0 -15 -12
-15 -45 0 -43 -1 -45 -30 -45 l-30 0 0 105 0 105 30 0 c28 0 30 -3 30 -35z
m230 15 c0 -16 -7 -20 -30 -20 -39 0 -41 -27 -2 -32 19 -2 28 -9 30 -25 3 -20
-1 -23 -27 -23 -24 0 -31 -4 -31 -20 0 -16 7 -20 30 -20 25 0 30 -4 30 -25 0
-25 -2 -26 -57 -23 l-58 3 -3 103 -3 102 61 0 c53 0 60 -2 60 -20z m102 -27
l16 -48 1 48 c1 43 3 47 26 47 l26 0 -3 -102 -3 -103 -26 -3 c-24 -3 -29 2
-42 40 l-15 43 -1 -42 c-1 -39 -3 -43 -26 -43 l-25 0 0 105 0 105 28 0 c25 0
30 -6 44 -47z m208 27 c0 -11 -14 -47 -30 -80 l-30 -60 30 0 c25 0 30 -4 30
-25 0 -24 -3 -25 -60 -25 -58 0 -60 1 -60 25 0 14 14 52 30 85 l30 60 -30 0
c-23 0 -30 4 -30 20 0 18 7 20 60 20 54 0 60 -2 60 -20z m80 -15 c0 -24 5 -35
15 -35 10 0 15 11 15 35 0 32 2 35 30 35 l30 0 0 -106 0 -105 -27 3 c-25 3
-28 7 -31 46 -2 28 -8 42 -18 42 -10 0 -14 -12 -14 -45 0 -41 -2 -45 -25 -45
l-25 0 0 105 0 105 25 0 c22 0 25 -4 25 -35z m240 15 c0 -16 -7 -20 -35 -20
-24 0 -35 -5 -35 -15 0 -10 10 -15 30 -15 25 0 30 -4 30 -25 0 -21 -5 -25 -30
-25 -23 0 -30 -5 -30 -19 0 -15 8 -21 33 -23 24 -2 33 -8 35 -25 3 -22 0 -23
-57 -23 l-61 0 0 105 0 105 60 0 c53 0 60 -2 60 -20z m93 -22 l15 -43 1 43 c1
38 3 42 26 42 l25 0 0 -105 0 -105 -28 0 c-25 0 -30 6 -44 48 l-16 47 -1 -47
c-1 -44 -3 -48 -26 -48 l-25 0 0 105 0 105 29 0 c25 0 31 -6 44 -42z m297 22
c0 -15 -7 -20 -25 -20 -25 0 -25 -1 -25 -85 0 -84 0 -85 -25 -85 -25 0 -25 1
-25 85 0 78 -2 85 -20 85 -13 0 -20 7 -20 20 0 18 7 20 70 20 63 0 70 -2 70
-20z m130 0 c0 -16 -7 -20 -35 -20 -46 0 -49 -27 -2 -32 24 -2 33 -8 35 -25 3
-20 -1 -23 -32 -23 -29 0 -36 -4 -36 -20 0 -16 7 -20 35 -20 31 0 35 -3 35
-25 0 -24 -3 -25 -60 -25 l-60 0 0 105 0 105 60 0 c53 0 60 -2 60 -20z m250
-15 c0 -24 5 -35 15 -35 10 0 15 11 15 35 0 32 2 35 30 35 l31 0 -3 -102 -3
-103 -27 -3 c-27 -3 -28 -2 -28 42 0 34 -4 46 -15 46 -11 0 -15 -12 -15 -45 0
-43 -1 -45 -30 -45 l-30 0 0 105 0 105 30 0 c28 0 30 -3 30 -35z m186 -5 l12
-35 1 38 c1 33 4 37 26 37 l25 0 0 -105 0 -105 -29 0 c-25 0 -30 5 -43 53
l-16 52 -1 -53 c-1 -49 -3 -53 -23 -50 -22 3 -23 8 -26 106 l-3 103 32 -3 c27
-2 35 -9 45 -38z m314 -40 l0 -80 30 0 c25 0 30 -4 30 -25 0 -24 -3 -25 -55
-25 l-55 0 0 105 0 105 25 0 c25 0 25 -1 25 -80z m438 53 l10 -28 7 28 c6 21
13 27 36 27 16 0 29 -1 29 -3 0 -2 -11 -31 -25 -65 -14 -34 -25 -80 -25 -102
0 -36 -2 -40 -25 -40 -23 0 -25 4 -25 45 0 25 -11 72 -24 105 l-25 60 29 0
c22 0 30 -6 38 -27z m222 -42 c0 -72 6 -101 21 -101 5 0 9 38 9 85 l0 85 30 0
30 0 0 -77 c0 -100 -13 -127 -64 -131 -63 -5 -76 15 -76 120 0 87 0 88 25 88
24 0 25 -2 25 -69z m191 14 l17 -50 -5 53 c-6 51 -5 52 21 52 l26 0 0 -106 0
-105 -27 3 c-22 2 -29 12 -44 53 l-18 50 2 -50 c2 -45 0 -50 -20 -53 -23 -3
-23 -2 -23 103 l0 106 27 -3 c22 -2 29 -12 44 -53z m149 -50 l0 -105 -30 0
-30 0 0 105 0 105 30 0 30 0 0 -105z m76 55 c8 -59 19 -57 28 5 7 41 10 45 36
45 22 0 27 -4 24 -17 -2 -10 -10 -45 -18 -78 -8 -33 -17 -72 -20 -87 -5 -23
-12 -28 -36 -28 -32 0 -34 5 -60 125 -6 28 -13 58 -16 68 -4 13 1 17 25 17 29
0 31 -2 37 -50z m224 30 c0 -16 -7 -20 -30 -20 -39 0 -41 -27 -2 -32 19 -2 28
-9 30 -25 3 -20 -1 -23 -27 -23 -24 0 -31 -4 -31 -20 0 -16 7 -20 30 -20 25 0
30 -4 30 -25 0 -24 -3 -25 -60 -25 l-60 0 0 105 0 105 60 0 c53 0 60 -2 60
-20z m155 -4 c12 -18 13 -30 5 -50 -6 -18 -7 -41 0 -69 14 -63 13 -67 -20 -67
-28 0 -30 2 -30 40 0 29 -4 40 -15 40 -11 0 -15 -11 -15 -40 0 -36 -2 -40 -25
-40 l-25 0 0 105 0 105 55 0 c46 0 57 -4 70 -24z m235 -81 l0 -105 -25 0 -25
0 0 105 0 105 25 0 25 0 0 -105z m218 78 l10 -28 7 28 c6 21 13 27 36 27 34 0
34 0 12 -48 -9 -20 -19 -64 -22 -97 -6 -56 -8 -60 -33 -63 -27 -3 -28 -1 -28
40 0 24 -7 64 -16 89 -15 41 -19 45 -45 41 l-29 -4 0 -84 c0 -83 0 -84 -25
-84 -25 0 -25 1 -25 85 0 78 -2 85 -20 85 -13 0 -20 7 -20 20 0 19 7 20 94 20
94 0 94 0 104 -27z m242 -298 l0 -25 -2310 0 -2310 0 0 25 0 25 2310 0 2310 0
0 -25z m-3720 -177 l55 -13 3 -113 3 -113 -40 21 c-106 54 -332 67 -416 25
-73 -37 -84 -100 -25 -155 17 -15 91 -52 174 -85 170 -67 247 -110 298 -165
111 -123 83 -320 -60 -411 -154 -98 -473 -115 -709 -38 l-33 11 0 114 c0 63 2
114 4 114 2 0 37 -16 78 -35 175 -83 388 -87 467 -8 28 28 32 38 27 65 -13 63
-74 104 -264 173 -212 77 -311 177 -312 314 0 135 71 224 225 280 33 12 83 26
110 31 69 12 348 4 415 -12z m1250 -58 l0 -61 -325 -379 c-179 -208 -325 -381
-325 -384 0 -3 146 -6 325 -6 l326 0 -3 -92 -3 -93 -512 -3 -513 -2 0 68 0 68
330 377 330 377 -305 0 -305 0 0 95 0 95 490 0 490 0 0 -60z m1110 -35 l0 -95
-185 0 -185 0 0 -445 0 -446 -137 3 -138 3 -3 443 -2 442 -180 0 -180 0 0 95
0 95 505 0 505 0 0 -95z m432 -257 c3 -228 9 -365 16 -387 33 -97 97 -142 212
-149 127 -7 196 25 243 112 21 40 22 52 25 409 l3 367 140 0 141 0 -4 -367
c-4 -347 -5 -372 -26 -434 -26 -78 -77 -150 -138 -198 -99 -75 -290 -113 -468
-92 -206 24 -325 104 -388 258 -22 57 -23 67 -26 446 l-3 387 135 0 134 0 4
-352z m928 -883 c0 -24 -2 -25 -75 -25 l-75 0 -2 -197 -3 -198 -197 -3 -198
-2 -2 197 -3 198 -192 3 -193 2 -2 -197 -3 -198 -197 -3 -198 -2 -2 197 -3
198 -192 3 -193 2 0 -200 0 -200 -197 2 -198 3 -3 198 -2 197 -190 0 -190 0
-2 -197 -3 -198 -195 0 -195 0 -3 198 -2 197 -195 0 -195 0 -2 -197 -3 -198
-197 -3 -198 -2 0 200 0 200 -195 0 -195 0 0 -200 0 -200 -197 2 -198 3 -3
198 -2 197 -65 0 c-63 0 -65 1 -65 25 l0 25 2310 0 2310 0 0 -25z m-10 -792
l0 -166 -42 -36 c-23 -20 -169 -150 -325 -288 -156 -139 -285 -253 -288 -253
-3 0 -5 194 -5 430 l0 430 -80 0 -80 0 -1 -507 0 -508 -306 -270 c-168 -148
-309 -271 -314 -273 -5 -2 -9 337 -9 777 l0 781 -80 0 -80 0 -1 -857 0 -858
-162 -141 c-294 -257 -455 -394 -461 -394 -3 0 -6 506 -6 1125 l0 1125 -75 0
-75 0 -2 -1116 -3 -1116 -267 230 c-147 126 -288 248 -313 270 l-45 40 0 846
0 846 -80 0 -80 0 -2 -774 -3 -775 -312 272 -312 272 0 503 -1 502 -80 0 -80
0 0 -426 c0 -241 -4 -424 -9 -422 -5 2 -146 125 -315 273 l-306 270 0 178 0
177 2300 0 2300 0 0 -167z"/>
<path d="M7638 6383 c-10 -11 -18 -23 -18 -27 0 -4 8 -18 18 -29 13 -18 26
-21 60 -19 55 4 58 29 5 34 -33 3 -39 7 -43 32 -5 28 -5 28 -22 9z"/>
<path d="M7545 6290 c-3 -5 -1 -10 4 -10 6 0 11 5 11 10 0 6 -2 10 -4 10 -3 0
-8 -4 -11 -10z"/>
<path d="M7631 6255 l-24 -36 22 -22 c35 -38 27 -49 -31 -47 -115 5 -238 0
-238 -10 0 -6 70 -10 190 -10 120 0 190 4 190 10 0 6 -18 10 -40 10 -39 0 -40
1 -40 35 0 34 1 35 40 35 22 0 40 5 40 10 0 6 -18 10 -39 10 -35 0 -40 3 -43
25 -3 24 -3 24 -27 -10z"/>
<path d="M7440 6262 c0 -19 -6 -22 -40 -22 -22 0 -40 -4 -40 -10 0 -5 18 -10
39 -10 35 0 40 -3 43 -26 l3 -26 28 29 27 29 -30 29 c-29 28 -30 28 -30 7z"/>
<path d="M5710 5501 c0 -59 14 -86 31 -60 5 8 8 36 7 64 -2 38 -7 51 -20 53
-16 3 -18 -5 -18 -57z"/>
<path d="M6002 5498 c2 -38 8 -63 16 -66 9 -3 12 14 12 62 0 53 -3 66 -15 66
-13 0 -15 -11 -13 -62z"/>
<path d="M7260 5540 c0 -11 7 -20 15 -20 8 0 15 9 15 20 0 11 -7 20 -15 20 -8
0 -15 -9 -15 -20z"/>
</g>
</svg>
