<?xml version="1.0" standalone="no"?>
<!DOCTYPE svg PUBLIC "-//W3C//DTD SVG 20010904//EN"
 "http://www.w3.org/TR/2001/REC-SVG-20010904/DTD/svg10.dtd">
<svg version="1.0" xmlns="http://www.w3.org/2000/svg"
 width="201.000000pt" height="201.000000pt" viewBox="0 0 201.000000 201.000000"
 preserveAspectRatio="xMidYMid meet">

<g transform="translate(0.000000,201.000000) scale(0.100000,-0.100000)"
fill="#000000" stroke="none">
<path d="M841 1919 c-217 -25 -369 -103 -559 -283 -80 -77 -92 -94 -155 -217
-97 -193 -120 -278 -120 -454 0 -176 23 -261 120 -453 61 -120 76 -142 148
-211 148 -142 254 -205 430 -256 129 -37 246 -50 353 -37 108 13 244 52 340
97 100 47 249 162 317 243 105 126 192 340 217 531 28 211 -69 525 -218 704
-68 82 -232 208 -339 258 -156 75 -335 101 -534 78z m329 -60 c87 -17 125 -31
224 -82 102 -53 131 -74 210 -152 205 -202 280 -378 280 -660 0 -170 -19 -265
-77 -380 -89 -179 -162 -266 -302 -361 -195 -133 -306 -168 -535 -168 -175 0
-276 21 -390 80 -117 61 -253 161 -306 225 -165 200 -247 472 -216 714 6 44
27 131 48 193 47 144 107 238 229 358 80 77 110 99 212 151 116 60 185 80 368
107 45 6 138 -3 255 -25z"/>
<path d="M1020 1822 c0 -6 5 -12 10 -14 8 -2 7 -20 -1 -56 -13 -63 -9 -76 30
-96 38 -20 79 -5 87 33 17 76 26 101 34 101 24 0 7 18 -20 22 -29 4 -40 -5
-20 -17 13 -8 13 -40 0 -87 -11 -38 -29 -52 -56 -41 -14 5 -15 16 -10 67 4 40
12 65 23 74 15 10 15 12 1 12 -8 0 -30 3 -47 6 -19 4 -31 2 -31 -4z"/>
<path d="M700 1785 c-10 -12 -10 -15 3 -15 18 0 37 -29 37 -54 0 -13 -11 -10
-54 15 -52 29 -56 29 -83 15 -17 -9 -22 -15 -12 -16 22 0 63 -92 55 -124 -6
-24 -5 -25 24 -15 16 6 30 15 30 21 0 5 -4 7 -9 3 -9 -5 -56 84 -49 91 2 1 34
-16 71 -38 37 -23 70 -39 72 -36 3 3 -6 31 -21 64 -14 32 -24 68 -21 81 5 27
-23 32 -43 8z"/>
<path d="M1240 1775 c11 -13 8 -26 -15 -76 -19 -38 -34 -58 -42 -55 -24 10
-13 -11 12 -22 35 -16 36 -16 29 13 -6 25 12 85 26 85 4 0 13 -27 20 -60 21
-99 30 -102 70 -21 20 43 40 71 49 71 11 0 9 6 -9 20 -34 26 -40 25 -34 -7 3
-16 -1 -36 -9 -47 -12 -17 -14 -13 -26 36 -9 43 -17 58 -37 67 -35 16 -49 14
-34 -4z"/>
<path d="M462 1664 c-53 -36 -79 -63 -49 -51 22 8 100 -93 90 -119 -4 -12 13
-4 55 26 34 23 62 45 62 47 0 9 -31 63 -36 63 -4 0 -4 -9 -1 -21 8 -28 -12
-69 -33 -69 -9 0 -22 11 -28 25 -10 22 -9 25 8 25 11 0 20 -5 20 -12 0 -6 3
-9 6 -5 7 7 -34 77 -45 77 -5 0 -6 -11 -3 -25 6 -31 -11 -32 -31 -2 -14 21
-13 24 4 35 13 8 26 9 44 2 31 -12 35 -12 35 -2 0 4 -11 14 -23 24 -22 15 -25
15 -75 -18z"/>
<path d="M1435 1680 c10 -17 -57 -120 -79 -120 -15 0 -14 -4 10 -22 16 -12 32
-27 36 -33 4 -5 8 -1 8 10 0 30 69 125 86 118 26 -10 14 12 -19 35 -35 23 -52
28 -42 12z"/>
<path d="M1536 1606 c3 -8 -11 -46 -31 -86 -20 -40 -34 -74 -31 -77 3 -3 34 7
70 22 39 16 75 26 90 23 33 -6 33 2 1 32 -24 23 -25 23 -25 3 0 -14 -8 -23
-24 -27 -13 -3 -32 -9 -41 -12 -15 -6 -14 -2 4 34 11 22 25 42 31 44 7 2 3 14
-10 31 -23 29 -43 37 -34 13z"/>
<path d="M328 1549 c-16 -15 -28 -31 -28 -36 0 -5 -13 -22 -30 -38 -32 -30
-39 -48 -17 -43 17 4 119 -81 111 -93 -12 -19 8 -8 31 19 25 27 33 48 15 37
-5 -3 -21 2 -34 10 -24 16 -25 18 -9 41 l16 25 23 -22 c13 -12 21 -25 19 -30
-3 -4 -2 -10 2 -12 5 -3 18 11 30 29 14 21 17 34 10 34 -18 0 -101 69 -107 88
-4 15 -9 13 -32 -9z m23 -49 c18 -10 18 -12 3 -35 -13 -20 -19 -22 -35 -12
-29 18 -24 48 9 56 2 1 12 -4 23 -9z"/>
<path d="M557 1387 l-177 -172 0 -245 1 -245 169 -169 168 -169 36 71 c20 40
39 72 41 72 3 0 -11 -31 -30 -70 -19 -38 -35 -72 -35 -75 0 -3 33 -5 74 -5
l74 0 17 76 c9 41 19 74 21 71 2 -2 -2 -33 -11 -68 -8 -35 -15 -67 -15 -71 0
-5 36 -8 80 -8 44 0 80 3 80 8 -1 4 -7 34 -15 67 -17 71 -18 75 -6 75 5 0 12
-19 16 -43 3 -23 9 -57 12 -74 l5 -33 74 0 74 0 -40 81 c-23 44 -36 78 -30 74
6 -3 27 -38 46 -77 l36 -71 168 168 169 168 0 248 1 247 -179 171 c-116 111
-186 171 -200 171 -20 0 -21 -5 -21 -90 0 -73 -3 -90 -15 -90 -12 0 -15 16
-15 80 0 68 -3 81 -19 90 -26 13 -256 13 -282 0 -16 -9 -19 -22 -19 -90 0 -47
-4 -80 -10 -80 -6 0 -10 31 -10 74 0 151 -12 147 -233 -67z m398 3 c4 -6 -19
-10 -62 -10 -48 0 -63 3 -53 10 20 13 107 13 115 0z m-132 -140 c4 -16 14 -20
45 -20 65 0 72 -6 72 -61 0 -27 -4 -49 -10 -49 -5 0 -10 15 -10 33 0 48 -12
59 -56 55 -38 -3 -39 -4 -42 -44 -3 -39 0 -44 47 -83 58 -48 103 -115 74 -109
-10 2 -30 22 -46 45 -20 31 -39 46 -68 54 l-39 12 -56 -57 c-31 -31 -58 -55
-61 -52 -10 10 49 91 81 111 27 18 31 26 34 73 l3 53 -48 -3 -48 -3 -3 -40
c-4 -58 -13 -76 -22 -45 -23 75 -3 110 65 110 34 0 47 5 55 20 6 11 15 20 19
20 5 0 11 -9 14 -20z m221 -127 c-3 -166 -2 -153 -14 -153 -5 0 -10 24 -10 53
0 92 13 246 20 242 4 -2 6 -66 4 -142z m36 98 c0 -22 -4 -42 -8 -45 -5 -3 -8
15 -8 39 1 55 16 60 16 6z m198 2 c3 -32 2 -33 -32 -33 -29 0 -36 4 -36 19 0
10 -6 24 -14 30 -12 10 -18 7 -30 -17 -14 -28 -48 -47 -60 -34 -3 3 -6 21 -6
39 l0 34 88 -3 87 -3 3 -32z m-277 -29 l-9 -39 -1 41 c-1 22 2 44 6 48 12 12
14 -8 4 -50z m-524 -112 c-48 -48 -87 -80 -87 -72 0 16 161 172 169 164 3 -3
-34 -44 -82 -92z m716 84 c3 -8 23 -17 44 -19 l38 -4 -43 -1 c-47 -2 -56 -24
-12 -30 36 -6 52 -29 56 -80 l4 -47 -13 39 c-12 35 -39 66 -58 66 -5 0 -9 -25
-11 -55 -2 -30 -7 -55 -13 -55 -5 0 -11 25 -13 55 -2 30 -7 55 -11 55 -18 0
-43 -41 -48 -80 -4 -24 -9 -37 -13 -30 -11 19 1 93 18 113 8 9 23 17 34 17 10
0 18 7 18 15 0 10 -12 16 -37 17 l-38 1 38 4 c24 3 37 9 37 19 0 18 16 18 23
0z m349 -140 c6 -11 -24 11 -67 50 -42 38 -82 78 -88 89 -5 11 25 -11 67 -49
42 -38 82 -79 88 -90z m-543 82 c0 -18 -4 -51 -8 -73 -8 -36 -9 -33 -10 33 -1
42 3 72 9 72 6 0 10 -15 9 -32z m81 -29 c0 -31 -4 -48 -10 -44 -5 3 -10 29
-10 56 0 31 4 48 10 44 6 -3 10 -29 10 -56z m-600 -199 c-46 -49 -84 -90 -86
-90 -2 0 -4 8 -4 17 0 17 160 176 168 168 3 -2 -33 -45 -78 -95z m1061 -51
c21 -39 5 -30 -67 41 -102 101 -115 131 -20 46 42 -38 81 -77 87 -87z m-806
101 c4 -6 -5 -10 -19 -10 -36 0 -35 -30 2 -31 l27 -2 -27 -4 c-16 -2 -28 -9
-28 -14 0 -5 12 -9 28 -10 l27 -1 -30 -9 c-32 -9 -45 1 -45 38 0 37 48 70 65
43z m213 -37 l3 -43 -38 1 c-30 2 -32 3 -10 6 15 2 27 9 27 14 0 5 -12 9 -27
10 -28 1 -28 1 5 13 36 12 33 26 -5 26 -15 0 -22 4 -18 11 4 5 19 9 33 7 24
-3 27 -8 30 -45z m216 -1 c7 -34 5 -46 -14 -77 -20 -33 -21 -40 -10 -101 6
-37 9 -68 6 -71 -9 -10 -28 41 -33 92 -5 43 -1 60 17 93 22 38 22 52 5 96 -6
14 -4 17 6 14 8 -3 18 -23 23 -46z m56 -18 c0 -13 -7 -42 -16 -65 -14 -33 -15
-47 -5 -78 6 -21 11 -49 11 -62 -1 -23 -1 -23 -15 -5 -24 32 -30 105 -12 153
9 24 15 49 12 56 -2 6 -6 26 -9 42 l-6 30 20 -24 c11 -13 20 -34 20 -47z m60
-3 c-1 -14 -7 -37 -15 -51 -19 -32 -19 -90 -1 -126 20 -38 8 -52 -15 -17 -23
34 -24 89 -3 142 14 36 14 42 -1 70 -9 18 -13 37 -9 43 11 17 44 -29 44 -61z
m-480 49 c13 -7 21 -7 25 0 3 5 14 10 23 10 15 -1 15 -2 -2 -11 -14 -9 -16
-13 -5 -20 7 -4 10 -12 5 -16 -5 -4 -11 -2 -13 5 -3 6 -13 12 -23 12 -9 0 -23
7 -30 15 -14 17 -7 19 20 5z m266 -100 c10 0 14 12 14 40 0 22 5 40 10 40 24
0 4 -97 -21 -105 -14 -5 -19 -16 -19 -41 0 -28 4 -34 21 -34 12 0 19 -5 17
-12 -6 -17 -100 -17 -105 -1 -2 6 6 13 19 15 32 4 39 57 9 65 -17 4 -21 13
-21 44 0 22 5 39 10 39 6 0 10 -13 10 -30 0 -16 5 -30 10 -30 6 0 10 22 10 48
0 66 14 76 18 13 2 -36 7 -51 18 -51z m-276 71 c0 -5 14 -11 30 -14 43 -9 37
-22 -9 -22 -25 0 -35 3 -28 8 9 7 9 10 0 14 -15 6 -17 23 -3 23 6 0 10 -4 10
-9z m155 -126 l0 -60 -57 -3 c-50 -3 -57 -6 -62 -27 -3 -13 -15 -27 -26 -30
-28 -9 -106 4 -127 22 -17 13 -17 14 2 9 49 -12 111 -16 124 -7 21 14 4 31
-32 32 -18 1 -43 5 -57 9 -19 6 -11 8 33 9 44 1 57 5 57 16 0 10 -10 15 -34
15 -40 0 -53 14 -35 36 9 11 30 14 83 12 63 -3 71 -5 71 -23 0 -14 -8 -21 -27
-23 -16 -2 -28 -9 -28 -18 0 -10 13 -14 51 -14 l50 0 -3 48 -3 47 -116 3
c-115 3 -116 2 -127 -23 -6 -13 -9 -31 -6 -39 3 -8 1 -17 -5 -21 -7 -4 -11 9
-11 39 0 26 5 46 13 50 6 2 71 4 142 3 l130 -2 0 -60z m-385 -4 c0 -5 -26 -30
-57 -57 l-58 -47 55 56 c57 60 60 62 60 48z m880 -48 l55 -56 -52 42 c-42 35
-73 71 -60 71 2 0 27 -25 57 -57z"/>
<path d="M1110 1225 c0 -30 25 -34 39 -6 12 21 5 31 -21 31 -13 0 -18 -7 -18
-25z"/>
<path d="M1222 1228 c5 -34 38 -37 38 -4 0 20 -5 26 -21 26 -15 0 -20 -5 -17
-22z"/>
<path d="M747 784 c-18 -18 -2 -24 59 -24 48 0 65 3 62 13 -5 13 -109 23 -121
11z"/>
<path d="M1670 1463 c0 -18 -106 -84 -124 -77 -17 7 -23 -11 -6 -21 6 -4 22
-29 35 -56 l25 -49 36 18 c28 13 32 18 18 20 -36 6 -74 25 -74 37 0 6 11 17
25 23 35 16 37 15 25 -9 -7 -11 -10 -22 -8 -24 6 -6 68 36 68 47 0 5 -4 7 -9
4 -5 -4 -17 -3 -26 0 -14 6 -13 8 5 21 12 8 27 12 35 9 18 -7 20 -47 3 -64 -6
-6 -9 -15 -5 -18 4 -4 15 4 26 17 18 22 18 26 4 54 -20 38 -53 81 -53 68z"/>
<path d="M192 1344 c-21 -43 -22 -48 -7 -70 16 -24 35 -32 35 -15 0 6 -4 13
-10 16 -12 8 -13 55 -1 55 5 0 28 -29 51 -65 23 -36 45 -65 49 -65 4 0 19 25
34 55 l27 55 -25 12 c-14 6 -25 15 -25 20 0 4 -5 8 -11 8 -5 0 -3 -10 5 -22 9
-12 16 -35 16 -51 0 -38 -15 -26 -67 53 -21 33 -40 59 -44 60 -3 0 -15 -21
-27 -46z"/>
<path d="M1765 1274 c-12 -18 -121 -48 -137 -38 -8 5 -9 -4 -5 -31 7 -42 15
-54 25 -39 9 14 52 37 58 31 3 -3 -9 -21 -26 -41 -25 -28 -31 -42 -26 -61 7
-28 26 -34 26 -9 0 9 11 29 24 45 21 24 26 26 36 14 18 -21 37 -18 54 8 13 20
14 29 1 76 -16 62 -18 65 -30 45z m25 -74 c0 -15 -37 -31 -55 -24 -22 9 -14
27 16 35 26 6 39 3 39 -11z"/>
<path d="M137 1208 c-5 -33 2 -54 10 -30 5 13 55 17 66 5 4 -3 -17 -20 -46
-38 -42 -25 -53 -37 -55 -61 -2 -19 0 -25 6 -16 7 11 21 11 66 3 66 -12 76
-17 76 -37 0 -30 18 -12 22 24 6 41 1 53 -11 33 -7 -11 -19 -11 -57 -4 l-49
10 72 34 c40 19 72 37 73 41 0 3 -34 14 -75 24 -46 11 -75 23 -75 31 0 27 -18
12 -23 -19z"/>
<path d="M1685 1062 c-28 -9 -34 -76 -9 -103 17 -19 64 -26 78 -12 4 4 15 8
24 8 61 4 59 3 57 45 -3 44 -19 70 -45 70 -21 0 -50 -31 -50 -53 0 -19 -27
-47 -46 -47 -17 0 -19 51 -2 68 7 7 20 12 30 12 10 0 18 5 18 10 0 11 -24 12
-55 2z m133 -55 c3 -21 -2 -29 -20 -36 -13 -5 -24 -8 -25 -7 -1 1 3 19 9 39
13 42 31 44 36 4z"/>
<path d="M200 1000 c0 -5 11 -12 24 -16 15 -3 27 -16 31 -31 7 -30 8 -28 -27
-37 -31 -7 -38 8 -11 23 28 15 10 22 -38 15 -36 -6 -39 -8 -21 -15 32 -12 27
-29 -8 -29 -25 0 -30 4 -30 23 0 13 11 30 28 40 l27 18 -34 -5 c-19 -4 -36 -8
-38 -9 -2 -2 0 -32 3 -66 5 -43 10 -59 17 -52 16 16 144 14 150 -1 3 -7 6 21
6 63 1 71 -1 77 -21 83 -34 9 -58 7 -58 -4z"/>
<path d="M1667 910 c-11 -31 -16 -80 -8 -80 5 0 11 5 13 11 4 13 138 -8 138
-22 0 -5 5 -9 10 -9 6 0 10 21 10 48 0 30 -3 42 -9 34 -13 -21 -138 -6 -144
17 -3 14 -5 14 -10 1z"/>
<path d="M267 817 c-6 -17 -110 -49 -133 -40 -14 5 -16 3 -9 -13 4 -10 10 -29
12 -41 5 -22 23 -33 23 -15 0 5 11 14 25 20 23 11 27 9 34 -11 9 -23 -9 -47
-35 -47 -7 0 -15 6 -17 13 -3 6 -6 0 -6 -14 -1 -14 6 -34 14 -45 8 -10 15 -14
15 -7 0 18 120 55 137 42 10 -9 13 -7 13 9 0 12 -4 24 -10 27 -5 3 -10 15 -10
26 0 10 -4 19 -10 19 -5 0 -10 -6 -10 -13 0 -8 -11 -19 -25 -25 -23 -11 -27
-9 -34 11 -11 28 0 40 37 40 28 0 28 1 18 39 -10 39 -20 48 -29 25z"/>
<path d="M1636 782 c-2 -4 -7 -25 -10 -47 -3 -22 -3 -34 0 -27 8 17 24 15 83
-9 53 -22 62 -41 23 -47 -36 -5 -25 -22 14 -22 19 0 33 4 29 9 -3 5 6 34 19
64 l24 55 -27 13 c-14 7 -30 15 -35 18 -5 2 -2 -7 7 -20 31 -43 22 -49 -43
-27 -35 12 -60 26 -60 34 0 15 -16 19 -24 6z"/>
<path d="M1563 605 c-25 -38 -29 -50 -12 -40 32 21 99 -50 99 -105 0 -28 15
-25 28 5 15 32 15 38 1 30 -5 -4 -19 4 -30 17 l-21 23 28 3 c18 2 33 -2 38
-11 8 -13 14 -10 33 16 13 17 23 33 23 36 0 3 -23 4 -51 3 -59 -5 -107 12
-111 39 -2 15 -7 12 -25 -16z"/>
<path d="M311 604 c-19 -14 -22 -23 -19 -68 2 -40 0 -51 -12 -51 -19 0 -25 41
-9 61 18 22 3 29 -26 10 -25 -17 -33 -36 -15 -36 6 0 10 -6 10 -13 0 -22 34
-47 62 -47 40 0 52 22 40 72 -6 23 -9 45 -6 50 9 15 33 8 44 -13 9 -16 8 -26
-4 -44 -23 -35 -20 -37 19 -18 33 16 46 33 25 33 -5 0 -10 9 -10 19 0 18 -47
61 -67 61 -5 0 -19 -7 -32 -16z"/>
<path d="M521 321 c-21 -14 -5 -43 21 -39 15 2 23 10 23 23 0 22 -22 30 -44
16z"/>
<path d="M1374 315 c-8 -19 3 -35 26 -35 22 0 33 23 17 39 -15 15 -37 14 -43
-4z"/>
<path d="M693 298 c15 -12 15 -19 4 -63 -10 -39 -18 -51 -35 -53 -36 -5 -25
-17 31 -34 56 -17 73 -15 44 7 -20 14 -19 17 28 138 6 15 1 17 -41 17 -40 0
-45 -2 -31 -12z"/>
<path d="M1150 291 c-15 -29 -12 -50 4 -28 17 22 42 22 50 0 5 -11 1 -22 -10
-30 -16 -12 -15 -13 9 -13 20 0 28 -6 33 -26 9 -37 -15 -51 -38 -21 -13 17
-20 19 -29 10 -19 -19 -3 -43 31 -43 36 0 80 38 80 69 0 11 -10 27 -22 35 -12
9 -19 18 -15 22 3 4 2 15 -4 25 -14 26 -75 26 -89 0z"/>
<path d="M848 279 c-52 -20 -44 -84 13 -96 36 -7 33 -21 -10 -44 -40 -21 -28
-31 19 -15 41 13 83 70 74 100 -6 21 -49 67 -62 65 -4 0 -19 -5 -34 -10z m50
-26 c12 -22 -3 -66 -20 -61 -24 8 -22 78 1 78 6 0 14 -8 19 -17z"/>
<path d="M997 262 c-21 -23 -21 -36 -2 -52 14 -12 14 -15 0 -30 -20 -22 -19
-33 3 -53 26 -24 66 -21 97 6 24 20 26 25 14 50 -7 15 -16 27 -21 27 -4 0 -3
9 4 19 27 44 -59 73 -95 33z m73 -7 c13 -16 6 -35 -14 -35 -18 0 -39 27 -31
40 9 14 31 12 45 -5z m-2 -92 c12 -24 4 -43 -17 -43 -22 0 -41 19 -41 42 0 24
46 24 58 1z"/>
</g>
</svg>
